HIERARCHY
ROOT Root
{
  OFFSET 0.0 0.0 0.0
  CHANNELS 6 Xposition Yposition Zposition Zrotation Yrotation Xrotation
  JOINT Hips
  {
    OFFSET 0.0 100.0 0.0
    CHANNELS 6 Xposition Yposition Zposition Zrotation Yrotation Xrotation
    JOINT Spine1
    {
      OFFSET 5.003913 -0.037094 -0.013727
      CHANNELS 3 Zrotation Yrotation Xrotation
      JOINT Spine2
      {
        OFFSET 7.125363 -1e-06 0.0
        CHANNELS 3 Zrotation Yrotation Xrotation
        JOINT Chest
        {
          OFFSET 7.594027 1e-06 0.0
          CHANNELS 3 Zrotation Yrotation Xrotation
          JOINT Neck1
          {
            OFFSET 26.313086 -0.460272 -0.181672
            CHANNELS 3 Zrotation Yrotation Xrotation
            JOINT Neck2
            {
              OFFSET 8.045911 0.0 0.0
              CHANNELS 3 Zrotation Yrotation Xrotation
              JOINT Head
              {
                OFFSET 6.432774 0.0 0.0
                CHANNELS 3 Zrotation Yrotation Xrotation
                JOINT HeadEnd
                {
                  OFFSET 16.169773 0.06451 0.00362
                  CHANNELS 3 Zrotation Yrotation Xrotation
                }
                JOINT Jaw
                {
                  OFFSET 0.108741 3.12938 0.002639
                  CHANNELS 3 Zrotation Yrotation Xrotation
                }
                JOINT LeftEye
                {
                  OFFSET 4.45173 8.166359 3.206392
                  CHANNELS 3 Zrotation Yrotation Xrotation
                }
                JOINT RightEye
                {
                  OFFSET 4.436895 8.135758 -3.222429
                  CHANNELS 3 Zrotation Yrotation Xrotation
                }
              }
            }
          }
          JOINT LeftShoulder
          {
            OFFSET 23.218927 5.195579 1.621656
            CHANNELS 3 Zrotation Yrotation Xrotation
            JOINT LeftArm
            {
              OFFSET 15.902118 2e-06 -2e-06
              CHANNELS 3 Zrotation Yrotation Xrotation
              JOINT LeftForeArm
              {
                OFFSET 28.739307 0.0 -1e-06
                CHANNELS 3 Zrotation Yrotation Xrotation
                JOINT LeftHand
                {
                  OFFSET 27.093981 -4e-06 0.0
                  CHANNELS 3 Zrotation Yrotation Xrotation
                  JOINT LeftHandThumb1
                  {
                    OFFSET 2.276781 3.380274 0.83384
                    CHANNELS 3 Zrotation Yrotation Xrotation
                    JOINT LeftHandThumb2
                    {
                      OFFSET 4.705309 -1e-06 -1e-06
                      CHANNELS 3 Zrotation Yrotation Xrotation
                      JOINT LeftHandThumb3
                      {
                        OFFSET 2.798515 0.0 3e-06
                        CHANNELS 3 Zrotation Yrotation Xrotation
                        JOINT LeftHandThumbEnd
                        {
                          OFFSET 3.180793 4e-06 -4e-06
                          CHANNELS 3 Zrotation Yrotation Xrotation
                        }
                      }
                    }
                  }
                  JOINT LeftHandIndex1
                  {
                    OFFSET 3.247786 2.352677 0.137192
                    CHANNELS 3 Zrotation Yrotation Xrotation
                    JOINT LeftHandIndex2
                    {
                      OFFSET 6.367095 1e-06 0.0
                      CHANNELS 3 Zrotation Yrotation Xrotation
                      JOINT LeftHandIndex3
                      {
                        OFFSET 3.662364 0.0 0.0
                        CHANNELS 3 Zrotation Yrotation Xrotation
                        JOINT LeftHandIndex4
                        {
                          OFFSET 2.329242 4e-06 -4e-06
                          CHANNELS 3 Zrotation Yrotation Xrotation
                          JOINT LeftHandIndexEnd
                          {
                            OFFSET 2.767823 1e-06 0.0
                            CHANNELS 3 Zrotation Yrotation Xrotation
                          }
                        }
                      }
                    }
                  }
                  JOINT LeftHandMiddle1
                  {
                    OFFSET 3.163612 0.945023 -0.406112
                    CHANNELS 3 Zrotation Yrotation Xrotation
                    JOINT LeftHandMiddle2
                    {
                      OFFSET 6.276789 3e-06 0.0
                      CHANNELS 3 Zrotation Yrotation Xrotation
                      JOINT LeftHandMiddle3
                      {
                        OFFSET 4.35652 -1e-06 4e-06
                        CHANNELS 3 Zrotation Yrotation Xrotation
                        JOINT LeftHandMiddle4
                        {
                          OFFSET 2.996877 0.0 8e-06
                          CHANNELS 3 Zrotation Yrotation Xrotation
                          JOINT LeftHandMiddleEnd
                          {
                            OFFSET 2.323256 3e-06 -4e-06
                            CHANNELS 3 Zrotation Yrotation Xrotation
                          }
                        }
                      }
                    }
                  }
                  JOINT LeftHandRing1
                  {
                    OFFSET 2.882606 -0.309162 0.107445
                    CHANNELS 3 Zrotation Yrotation Xrotation
                    JOINT LeftHandRing2
                    {
                      OFFSET 6.033198 0.0 4e-06
                      CHANNELS 3 Zrotation Yrotation Xrotation
                      JOINT LeftHandRing3
                      {
                        OFFSET 4.350578 3e-06 0.0
                        CHANNELS 3 Zrotation Yrotation Xrotation
                        JOINT LeftHandRing4
                        {
                          OFFSET 2.651321 2e-06 -7e-06
                          CHANNELS 3 Zrotation Yrotation Xrotation
                          JOINT LeftHandRingEnd
                          {
                            OFFSET 1.937663 1e-06 -4e-06
                            CHANNELS 3 Zrotation Yrotation Xrotation
                          }
                        }
                      }
                    }
                  }
                  JOINT LeftHandPinky1
                  {
                    OFFSET 2.865315 -1.525436 0.575687
                    CHANNELS 3 Zrotation Yrotation Xrotation
                    JOINT LeftHandPinky2
                    {
                      OFFSET 5.54936 1e-06 -8e-06
                      CHANNELS 3 Zrotation Yrotation Xrotation
                      JOINT LeftHandPinky3
                      {
                        OFFSET 3.070974 0.0 -4e-06
                        CHANNELS 3 Zrotation Yrotation Xrotation
                        JOINT LeftHandPinky4
                        {
                          OFFSET 1.549672 1e-06 0.0
                          CHANNELS 3 Zrotation Yrotation Xrotation
                          JOINT LeftHandPinkyEnd
                          {
                            OFFSET 1.952123 0.0 0.0
                            CHANNELS 3 Zrotation Yrotation Xrotation
                          }
                        }
                      }
                    }
                  }
                }
              }
            }
          }
          JOINT RightShoulder
          {
            OFFSET 23.161716 5.296122 -1.380114
            CHANNELS 3 Zrotation Yrotation Xrotation
            JOINT RightArm
            {
              OFFSET -16.027195 -2e-06 1.1e-05
              CHANNELS 3 Zrotation Yrotation Xrotation
              JOINT RightForeArm
              {
                OFFSET -28.736639 4e-06 2e-06
                CHANNELS 3 Zrotation Yrotation Xrotation
                JOINT RightHand
                {
                  OFFSET -27.133619 6e-06 0.0
                  CHANNELS 3 Zrotation Yrotation Xrotation
                  JOINT RightHandThumb1
                  {
                    OFFSET -2.274328 -3.351035 -0.83067
                    CHANNELS 3 Zrotation Yrotation Xrotation
                    JOINT RightHandThumb2
                    {
                      OFFSET -4.703594 -3e-06 2e-06
                      CHANNELS 3 Zrotation Yrotation Xrotation
                      JOINT RightHandThumb3
                      {
                        OFFSET -2.794935 -4e-06 -3e-06
                        CHANNELS 3 Zrotation Yrotation Xrotation
                        JOINT RightHandThumbEnd
                        {
                          OFFSET -3.183852 4e-06 1e-06
                          CHANNELS 3 Zrotation Yrotation Xrotation
                        }
                      }
                    }
                  }
                  JOINT RightHandIndex1
                  {
                    OFFSET -3.253496 -2.33755 -0.127667
                    CHANNELS 3 Zrotation Yrotation Xrotation
                    JOINT RightHandIndex2
                    {
                      OFFSET -6.344434 0.0 0.0
                      CHANNELS 3 Zrotation Yrotation Xrotation
                      JOINT RightHandIndex3
                      {
                        OFFSET -3.654871 0.0 -8e-06
                        CHANNELS 3 Zrotation Yrotation Xrotation
                        JOINT RightHandIndex4
                        {
                          OFFSET -2.327586 -1e-06 0.0
                          CHANNELS 3 Zrotation Yrotation Xrotation
                          JOINT RightHandIndexEnd
                          {
                            OFFSET -2.770001 3e-06 8e-06
                            CHANNELS 3 Zrotation Yrotation Xrotation
                          }
                        }
                      }
                    }
                  }
                  JOINT RightHandMiddle1
                  {
                    OFFSET -3.168223 -0.944764 0.411762
                    CHANNELS 3 Zrotation Yrotation Xrotation
                    JOINT RightHandMiddle2
                    {
                      OFFSET -6.266691 -1e-06 -4e-06
                      CHANNELS 3 Zrotation Yrotation Xrotation
                      JOINT RightHandMiddle3
                      {
                        OFFSET -4.348901 0.0 0.0
                        CHANNELS 3 Zrotation Yrotation Xrotation
                        JOINT RightHandMiddle4
                        {
                          OFFSET -3.00024 2e-06 -4e-06
                          CHANNELS 3 Zrotation Yrotation Xrotation
                          JOINT RightHandMiddleEnd
                          {
                            OFFSET -2.321477 -4e-06 -4e-06
                            CHANNELS 3 Zrotation Yrotation Xrotation
                          }
                        }
                      }
                    }
                  }
                  JOINT RightHandRing1
                  {
                    OFFSET -2.885654 0.293261 -0.119232
                    CHANNELS 3 Zrotation Yrotation Xrotation
                    JOINT RightHandRing2
                    {
                      OFFSET -6.032835 -1e-06 -4e-06
                      CHANNELS 3 Zrotation Yrotation Xrotation
                      JOINT RightHandRing3
                      {
                        OFFSET -4.33881 0.0 -4e-06
                        CHANNELS 3 Zrotation Yrotation Xrotation
                        JOINT RightHandRing4
                        {
                          OFFSET -2.654903 -4e-06 -4e-06
                          CHANNELS 3 Zrotation Yrotation Xrotation
                          JOINT RightHandRingEnd
                          {
                            OFFSET -1.935122 0.0 4e-06
                            CHANNELS 3 Zrotation Yrotation Xrotation
                          }
                        }
                      }
                    }
                  }
                  JOINT RightHandPinky1
                  {
                    OFFSET -2.866241 1.503904 -0.60527
                    CHANNELS 3 Zrotation Yrotation Xrotation
                    JOINT RightHandPinky2
                    {
                      OFFSET -5.553177 -2e-06 0.0
                      CHANNELS 3 Zrotation Yrotation Xrotation
                      JOINT RightHandPinky3
                      {
                        OFFSET -3.062664 -1e-06 -4e-06
                        CHANNELS 3 Zrotation Yrotation Xrotation
                        JOINT RightHandPinky4
                        {
                          OFFSET -1.546529 2e-06 4e-06
                          CHANNELS 3 Zrotation Yrotation Xrotation
                          JOINT RightHandPinkyEnd
                          {
                            OFFSET -1.952341 0.0 -4e-06
                            CHANNELS 3 Zrotation Yrotation Xrotation
                          }
                        }
                      }
                    }
                  }
                }
              }
            }
          }
        }
      }
    }
    JOINT LeftLeg
    {
      OFFSET -8.443107 2.567604 10.043214
      CHANNELS 3 Zrotation Yrotation Xrotation
      JOINT LeftShin
      {
        OFFSET 43.229198 1e-06 -1e-06
        CHANNELS 3 Zrotation Yrotation Xrotation
        JOINT LeftFoot
        {
          OFFSET 42.298611 1e-06 1e-06
          CHANNELS 3 Zrotation Yrotation Xrotation
          JOINT LeftToeBase
          {
            OFFSET 14.165858 1e-06 0.0
            CHANNELS 3 Zrotation Yrotation Xrotation
            JOINT LeftToeEnd
            {
              OFFSET 6.7141 -0.234461 0.0
              CHANNELS 3 Zrotation Yrotation Xrotation
            }
          }
        }
      }
    }
    JOINT RightLeg
    {
      OFFSET -8.303923 2.592729 -10.047278
      CHANNELS 3 Zrotation Yrotation Xrotation
      JOINT RightShin
      {
        OFFSET -43.369682 0.0 1e-06
        CHANNELS 3 Zrotation Yrotation Xrotation
        JOINT RightFoot
        {
          OFFSET -42.260784 4e-06 2e-06
          CHANNELS 3 Zrotation Yrotation Xrotation
          JOINT RightToeBase
          {
            OFFSET -14.222245 -2e-06 -1e-06
            CHANNELS 3 Zrotation Yrotation Xrotation
            JOINT RightToeEnd
            {
              OFFSET -6.660062 0.232574 -2e-06
              CHANNELS 3 Zrotation Yrotation Xrotation
            }
          }
        }
      }
    }
  }
}
MOTION
Frames: 5
Frame Time: 0.03333333333333333
0.0 0.0 0.0 0.0 -0.0 0.0 -22.037428 47.932533 148.345688 88.354271 -55.823311 94.607681 12.515759 1.427495 0.101944 -4.97735 0.544885 -1.005727 22.921356 5.464408 -1.066308 29.606216 -0.164563 2.938254 -2.629954 -1.069141 1.803697 -26.889805 -1.32246 2.619332 6e-06 0.0 -1e-06 -0.311186 -0.060623 0.067478 -0.440031 -0.026911 0.100106 -0.450751 -0.098042 0.035521 -19.226168 -67.045517 21.483973 90.544891 6.118032 -38.518715 8.116808 -0.140923 0.152314 0.015065 74.598473 -0.654274 17.636629 -26.322731 52.411186 -19.466661 -14.395597 29.410389 -1e-06 -8.774821 -2e-06 15.946878 -18.829651 6.305425 -0.609777 -1.795653 -3.889328 -4.807087 -11.046811 -2.93785 3e-06 -20.976021 2e-06 -5.019971 -25.033558 -4.031879 5e-06 -0.0 -1e-06 -10.634534 -5.68697 -3.565587 10.573276 -17.922951 -3.113901 3e-06 -13.821211 2e-06 -0.501777 -31.181505 -4.027015 -11.325049 -59.332722 6.667299 -13.982713 -7.150198 -2.875041 13.772731 -8.401491 -3.218242 0.347733 -34.211555 0.771655 -0.963029 -17.73337 2.62102 -0.0 -0.0 -0.0 -17.346416 -20.095217 -4.201784 21.757557 -1.638376 3.866429 1e-06 -6.338825 0.0 -1.697589 -22.591747 -6.194006 -0.0 -6e-06 -2e-06 170.261093 -77.020264 15.799095 94.762794 -28.823748 -42.892174 19.833443 -1.410344 0.323766 88.737556 62.21875 104.106407 22.182114 -20.375891 49.933323 -16.701815 -16.743526 28.476534 -2e-06 -12.6906 -1e-06 16.103945 -17.868015 2.432924 -0.105921 -1.513855 -4.275882 -5.039041 -5.612874 -2.953558 4e-06 -11.02052 -3e-06 -6.111295 -15.895334 -3.840472 1e-06 0.0 1e-06 -10.283371 -5.680289 -4.341841 11.028294 -11.302407 -2.372633 -1.384268 -14.238583 -6.320124 -0.625433 -26.924191 -3.827605 -4.362674 -49.950573 -3.882637 -13.708524 -7.363475 -3.720942 18.14115 -14.052741 -3.242675 8e-06 -18.787271 -3e-06 -0.429711 -8.456043 2.555504 -0.0 -0.0 -0.0 -15.923536 -20.094482 -5.473588 30.41921 -7.190828 1.735925 4e-06 -8.162925 -1e-06 -1.861901 -22.861469 -6.167943 -0.0 -4e-06 -0.0 147.011826 -3.700996 8.669679 78.876701 -1.477838 0.114494 -51.16156 4.403732 -4.581027 -13.026253 1.607556 2.073779 -0.999997 -0.0 -0.0 -65.639107 -5.830078 1.434287 119.069504 -0.610006 0.049631 -66.094124 19.030632 -10.394934 -12.973275 0.548351 1.752841 -1.000003 0.0 -0.0 
0.0 0.0 0.0 0.0 -0.0 0.0 -22.58359 47.805698 149.063477 86.618744 -55.892551 94.497612 12.422935 1.305009 0.274357 -4.972053 0.503377 -0.42438 22.82999 5.434825 -0.225662 29.171284 -1.181877 2.945461 -2.673851 -0.968876 1.912201 -26.961712 -1.138957 2.755442 6e-06 0.0 0.0 -0.315607 -0.090009 0.079619 -0.421177 -0.050505 0.115955 -0.415261 -0.135474 0.043076 -21.641562 -67.015114 23.846394 91.582443 5.468106 -37.342308 8.336938 -0.144645 0.150723 0.371599 75.119041 -0.133228 17.636633 -26.322729 52.411186 -19.466658 -14.395596 29.410381 -1e-06 -8.77482 -2e-06 15.804479 -18.760647 6.433805 -0.609776 -1.795653 -3.889328 -4.807089 -11.046808 -2.93785 2e-06 -20.976015 3e-06 -5.019971 -25.033554 -4.03188 7e-06 1e-06 0.0 -10.634535 -5.68697 -3.565588 10.573274 -17.922951 -3.113899 2e-06 -13.821212 2e-06 -0.50178 -31.181505 -4.027015 -11.333537 -59.325516 6.730938 -13.982714 -7.150198 -2.875042 13.772727 -8.401489 -3.21824 0.347731 -34.211544 0.771656 -0.963029 -17.733366 2.621021 -1e-06 -1e-06 -1e-06 -17.346416 -20.095215 -4.201782 21.757557 -1.638376 3.866429 1e-06 -6.338824 0.0 -1.69759 -22.591742 -6.194003 -0.0 -6e-06 -0.0 178.467987 -77.580963 7.81144 93.653946 -30.523808 -43.370739 20.787201 -1.117872 0.320003 86.438988 61.709579 102.115273 22.182117 -20.375893 49.933319 -16.701805 -16.743528 28.476521 -2e-06 -12.690598 -1e-06 16.048273 -17.904633 2.395091 -0.105919 -1.513856 -4.275881 -5.039041 -5.612871 -2.953556 4e-06 -11.020519 -2e-06 -6.111297 -15.895334 -3.84047 -0.0 0.0 0.0 -10.283369 -5.680287 -4.341838 11.028292 -11.302404 -2.372632 -1.38427 -14.238579 -6.320121 -0.625439 -26.924179 -3.8276 -4.237416 -49.916992 -3.88574 -13.708525 -7.363474 -3.72094 18.141146 -14.052736 -3.242673 5e-06 -18.787266 -0.0 -0.429712 -8.456042 2.555504 0.0 0.0 1e-06 -15.923534 -20.094479 -5.473585 30.419205 -7.190825 1.735926 2e-06 -8.162922 0.0 -1.861903 -22.861464 -6.167939 1e-06 -2e-06 -1e-06 148.025055 -5.979176 7.995414 77.628975 -1.609109 0.211264 -50.575764 4.480805 -4.070968 -13.218589 1.627517 2.036863 -0.999997 0.0 0.0 -65.079643 -3.001204 0.560558 117.743393 -0.569138 0.023526 -63.590973 19.482927 -9.698751 -12.781085 0.535314 1.721037 -1.000003 -1e-06 -1e-06 
0.0 0.0 0.0 0.0 -0.0 0.0 -23.163929 47.703762 149.789459 85.009995 -56.041897 94.552376 12.287224 1.174388 0.399561 -4.987631 0.42474 0.08048 22.733042 5.339354 0.467186 28.466244 -2.040042 3.006624 -2.711519 -0.876063 2.027196 -26.921356 -0.93492 2.871485 6e-06 0.0 0.0 -0.3174 -0.131856 0.092331 -0.411762 -0.080085 0.124539 -0.389603 -0.19153 0.059628 -23.686768 -67.036255 25.837984 92.405251 4.920527 -36.180561 8.537757 -0.176938 0.14569 1.55604 75.553864 1.034734 17.636625 -26.322735 52.411194 -19.46666 -14.395597 29.410381 -1e-06 -8.774817 -2e-06 15.654945 -18.692377 6.547656 -0.609776 -1.795654 -3.889328 -4.807087 -11.046809 -2.93785 4e-06 -20.976015 1e-06 -5.019969 -25.033556 -4.031879 7e-06 0.0 -2e-06 -10.634532 -5.68697 -3.565589 10.573271 -17.922947 -3.113899 3e-06 -13.821206 2e-06 -0.501776 -31.181498 -4.027016 -11.397639 -59.248661 6.847939 -13.982711 -7.150197 -2.875043 13.772727 -8.401493 -3.218241 0.347733 -34.211544 0.771657 -0.963029 -17.733368 2.621021 -0.0 -0.0 0.0 -17.346415 -20.095215 -4.201784 21.757555 -1.638376 3.866428 1e-06 -6.338824 1e-06 -1.697587 -22.591742 -6.194006 -1e-06 -7e-06 -0.0 -173.67569 -77.912186 0.150867 92.676918 -32.185715 -44.122082 22.000456 -0.757682 0.360906 83.6912 61.077156 99.484749 22.182114 -20.375895 49.933319 -16.701811 -16.743528 28.476522 -2e-06 -12.690598 -1e-06 15.980227 -17.907394 2.343942 -0.105919 -1.513856 -4.27588 -5.039042 -5.612873 -2.953557 4e-06 -11.020523 -2e-06 -6.111298 -15.895334 -3.840468 1e-06 0.0 -0.0 -10.283369 -5.680288 -4.341838 11.028291 -11.302406 -2.372632 -1.38427 -14.238581 -6.32012 -0.62544 -26.924187 -3.8276 -4.111868 -49.806503 -3.894663 -13.708522 -7.363479 -3.720938 18.141146 -14.052739 -3.242673 5e-06 -18.78727 -1e-06 -0.429712 -8.456043 2.555504 0.0 -0.0 1e-06 -15.923532 -20.094482 -5.473584 30.419207 -7.190823 1.735928 1e-06 -8.162927 -0.0 -1.861904 -22.861467 -6.167941 1e-06 -2e-06 -1e-06 148.962555 -8.107793 7.290351 76.353043 -1.791593 0.302567 -50.341221 4.564151 -3.677498 -13.35649 1.627992 2.020782 -0.999999 -0.0 0.0 -64.584991 -0.396227 -0.168385 116.393021 -0.476838 6.6e-05 -61.280834 19.877146 -8.951847 -12.606236 0.530111 1.683314 -1.000003 -0.0 -1e-06 
0.0 0.0 0.0 0.0 -0.0 0.0 -23.782211 47.639431 150.500565 83.562492 -56.266663 94.871964 12.140311 1.026672 0.48246 -5.022244 0.333053 0.452921 22.623884 5.13978 0.953684 27.543306 -2.614339 3.101104 -2.738084 -0.820423 2.183544 -26.724064 -0.780581 2.975091 6e-06 -0.0 0.0 -0.316944 -0.17975 0.105884 -0.395367 -0.115292 0.130964 -0.364427 -0.253267 0.08038 -25.220917 -67.113853 27.320642 92.994301 4.471124 -35.126186 8.721768 -0.225798 0.136641 3.808242 75.981438 2.956914 17.636627 -26.322733 52.41119 -19.46666 -14.3956 29.410381 0.0 -8.774821 -1e-06 15.515778 -18.606684 6.587199 -0.609777 -1.795654 -3.889327 -4.807089 -11.046811 -2.93785 3e-06 -20.976019 2e-06 -5.01997 -25.033558 -4.031882 5e-06 0.0 -1e-06 -10.634536 -5.686971 -3.565585 10.573275 -17.922951 -3.113899 3e-06 -13.821211 2e-06 -0.501778 -31.181505 -4.027014 -11.39493 -59.082058 6.8827 -13.982716 -7.150198 -2.875041 13.772731 -8.401493 -3.218241 0.347733 -34.211555 0.771654 -0.963028 -17.733368 2.621019 0.0 -1e-06 1e-06 -17.346422 -20.095217 -4.201779 21.757563 -1.638377 3.866428 1e-06 -6.338823 1e-06 -1.69759 -22.591743 -6.194007 -0.0 -5e-06 -1e-06 -167.396561 -78.071884 -5.92011 91.849083 -33.830582 -45.219109 23.850882 -0.327017 0.404794 80.775276 60.198708 96.313385 22.18211 -20.375895 49.933296 -16.701809 -16.743528 28.476519 -4e-06 -12.690597 -0.0 15.898224 -17.916471 2.318265 -0.105918 -1.513856 -4.27588 -5.039039 -5.612868 -2.953555 5e-06 -11.02052 -1e-06 -6.111296 -15.895328 -3.840468 1e-06 1e-06 1e-06 -10.283367 -5.680286 -4.341837 11.028294 -11.302401 -2.372632 -1.384268 -14.238581 -6.320118 -0.625439 -26.924187 -3.827595 -4.009921 -49.700531 -3.861063 -13.708522 -7.363475 -3.720936 18.141146 -14.052737 -3.242673 6e-06 -18.787268 -1e-06 -0.429711 -8.456041 2.555503 0.0 1e-06 -0.0 -15.923532 -20.094479 -5.473579 30.419205 -7.190824 1.735923 1e-06 -8.162927 0.0 -1.861903 -22.861467 -6.167939 -0.0 -4e-06 -0.0 149.743332 -10.007094 6.628501 75.082924 -2.058374 0.39683 -50.432083 4.734697 -3.432022 -13.457351 1.620199 2.016157 -0.999997 -0.0 0.0 -64.176926 1.882888 -0.778377 115.02491 -0.327991 -0.028181 -59.034706 20.275135 -8.095251 -12.313641 0.529143 1.64118 -1.000002 1e-06 0.0 
0.0 0.0 0.0 0.0 -0.0 0.0 -24.423248 47.65041 151.222473 82.349586 -56.546879 95.564629 12.025141 0.874381 0.513861 -5.069731 0.251655 0.62988 22.507988 4.778496 1.168665 26.462765 -2.757531 3.204112 -2.753622 -0.822004 2.402963 -26.418968 -0.775023 3.096428 6e-06 -0.0 0.0 -0.316986 -0.214113 0.116892 -0.365426 -0.14288 0.136252 -0.341222 -0.294859 0.097762 -26.01005 -67.238113 28.061508 93.321838 4.150818 -34.223824 8.90606 -0.312793 0.129061 7.334056 76.562859 5.919417 17.636625 -26.322735 52.41119 -19.466661 -14.395597 29.410385 -2e-06 -8.77482 -1e-06 15.430184 -18.522476 6.533546 -0.609775 -1.795654 -3.889328 -4.807089 -11.046811 -2.93785 3e-06 -20.976019 2e-06 -5.01997 -25.03356 -4.03188 5e-06 -1e-06 -1e-06 -10.634531 -5.686971 -3.565588 10.573271 -17.922951 -3.113901 2e-06 -13.821212 2e-06 -0.501779 -31.181505 -4.027014 -11.331124 -58.884258 6.79973 -13.982712 -7.150198 -2.875041 13.772727 -8.401492 -3.218241 0.347733 -34.211555 0.771655 -0.963029 -17.73337 2.62102 -0.0 -0.0 0.0 -17.346413 -20.095217 -4.20178 21.757555 -1.638376 3.866426 1e-06 -6.338824 1e-06 -1.697589 -22.591742 -6.194006 -0.0 -5e-06 -1e-06 -163.991058 -78.19754 -9.106297 90.991455 -35.574692 -46.739655 27.130241 0.022572 0.391978 77.855026 58.794247 92.754631 22.182116 -20.375891 49.933319 -16.701815 -16.743528 28.476532 -0.0 -12.690601 -0.0 15.929958 -17.984699 2.295268 -0.105919 -1.513857 -4.275882 -5.03904 -5.612874 -2.953556 3e-06 -11.02052 -3e-06 -6.111297 -15.895334 -3.840472 0.0 0.0 0.0 -10.283369 -5.680288 -4.341839 11.028296 -11.302406 -2.372633 -1.384269 -14.238581 -6.320122 -0.625439 -26.924191 -3.827601 -3.994133 -49.701214 -3.798207 -13.708524 -7.363478 -3.720938 18.14115 -14.052739 -3.242676 6e-06 -18.78727 -3e-06 -0.429712 -8.456043 2.555503 -0.0 0.0 0.0 -15.923536 -20.094482 -5.473585 30.41921 -7.190826 1.735925 2e-06 -8.162925 -2e-06 -1.861904 -22.861467 -6.167942 -0.0 -3e-06 -1e-06 150.349915 -11.558417 6.147952 73.776024 -2.381124 0.504086 -51.008923 4.93551 -3.351721 -13.675822 1.606961 2.023389 -0.999995 0.0 0.0 -63.784897 3.657049 -1.312758 113.602348 -0.141261 -0.057656 -56.937279 20.697926 -7.104833 -12.037941 0.539333 1.590625 -1.000002 0.0 0.0 
